<svg xmlns="http://www.w3.org/2000/svg" viewBox="0 0 64 64">
  <defs>
    <linearGradient id="blade1" x1="0" y1="0" x2="1" y2="1">
      <stop offset="0" stop-color="#f8fafc"/>
      <stop offset="1" stop-color="#94a3b8"/>
    </linearGradient>
    <linearGradient id="blade2" x1="1" y1="0" x2="0" y2="1">
      <stop offset="0" stop-color="#fb923c"/>
      <stop offset="1" stop-color="#ec4899"/>
    </linearGradient>
  </defs>
  <rect width="64" height="64" rx="14" fill="#0a0a0f"/>
  <rect width="64" height="64" rx="14" fill="none" stroke="#262637" stroke-width="1.5"/>
  <!-- sword 1 (silver) -->
  <g>
    <path d="M15 13 L44 47" stroke="url(#blade1)" stroke-width="5" stroke-linecap="round"/>
    <path d="M44 47 L48 52" stroke="#94a3b8" stroke-width="3" stroke-linecap="round"/>
    <path d="M40 40 L48 44" stroke="#cbd5e1" stroke-width="3.4" stroke-linecap="round"/>
  </g>
  <!-- sword 2 (ember) -->
  <g>
    <path d="M49 13 L20 47" stroke="url(#blade2)" stroke-width="5" stroke-linecap="round"/>
    <path d="M20 47 L16 52" stroke="#ec4899" stroke-width="3" stroke-linecap="round"/>
    <path d="M24 40 L16 44" stroke="#fb923c" stroke-width="3.4" stroke-linecap="round"/>
  </g>
  <!-- clash spark -->
  <circle cx="32" cy="29" r="4.5" fill="#facc15"/>
  <path d="M32 18 L33.8 24 L32 22.6 L30.2 24 Z" fill="#fde047"/>
  <path d="M41 21 L38 26 L36.6 24.4 Z" fill="#fde047" opacity=".85"/>
  <path d="M23 21 L26 26 L27.4 24.4 Z" fill="#fde047" opacity=".85"/>
</svg>
